<?xml version="1.0" encoding="UTF-8" standalone="no"?>
<!-- Created with Inkscape (http://www.inkscape.org/) -->

<svg
   width="48"
   height="48"
   viewBox="0 0 48 48"
   version="1.1"
   id="svg5"
   inkscape:version="1.2.2 (b0a8486541, 2022-12-01)"
   sodipodi:docname="app.checksums.svg"
   xmlns:inkscape="http://www.inkscape.org/namespaces/inkscape"
   xmlns:sodipodi="http://sodipodi.sourceforge.net/DTD/sodipodi-0.dtd"
   xmlns="http://www.w3.org/2000/svg"
   xmlns:svg="http://www.w3.org/2000/svg">
  <sodipodi:namedview
     id="namedview7"
     pagecolor="#ffffff"
     bordercolor="#666666"
     borderopacity="1.0"
     inkscape:showpageshadow="2"
     inkscape:pageopacity="0.0"
     inkscape:pagecheckerboard="0"
     inkscape:deskcolor="#d1d1d1"
     inkscape:document-units="mm"
     showgrid="false"
     inkscape:zoom="5.6568543"
     inkscape:cx="46.315494"
     inkscape:cy="24.130019"
     inkscape:window-width="1854"
     inkscape:window-height="1011"
     inkscape:window-x="0"
     inkscape:window-y="0"
     inkscape:window-maximized="1"
     inkscape:current-layer="layer1" />
  <defs
     id="defs2" />
  <g
     inkscape:label="Layer 1"
     inkscape:groupmode="layer"
     id="layer1">
    <rect
       style="fill:#fafafa;fill-rule:evenodd;fill-opacity:1;stroke:#1249f6;stroke-opacity:1;stroke-width:1.75748031;stroke-dasharray:none"
       id="rect482"
       width="45.458771"
       height="45.100086"
       x="1.4629576"
       y="1.4600788"
       ry="2.4174728" />
    <ellipse
       style="fill:#e6e6e6;fill-rule:evenodd;stroke-width:3.01728"
       id="path1143"
       cx="23.387745"
       cy="23.721964"
       rx="19.420317"
       ry="18.729713" />
    <g
       aria-label="Sums"
       id="text1307"
       style="font-size:13.3333px;line-height:1.25;letter-spacing:0.02px">
      <path
         d="m 13.348154,26.929546 q 0,1.266663 -0.919998,1.973328 -0.919998,0.706665 -2.4799938,0.706665 -0.799998,0 -1.4799963,-0.12 -0.6799983,-0.12 -1.1333305,-0.333332 v -1.146664 q 0.4799988,0.213333 1.1866637,0.386666 0.7199982,0.173332 1.4799959,0.173332 1.066664,0 1.599996,-0.413332 0.546666,-0.413332 0.546666,-1.119997 0,-0.466665 -0.2,-0.786665 Q 11.748158,25.929548 11.254826,25.662882 10.774827,25.382883 9.9081623,25.076217 8.694832,24.636218 8.0681669,23.99622 7.4548351,23.356221 7.4548351,22.249557 q 0,-0.759998 0.3866657,-1.29333 0.3866657,-0.546665 1.066664,-0.839998 0.6933316,-0.293332 1.5866622,-0.293332 0.786665,0 1.439997,0.146666 0.653331,0.146666 1.186663,0.386666 l -0.373332,1.026664 q -0.493332,-0.213333 -1.079997,-0.359999 -0.573332,-0.146666 -1.199997,-0.146666 -0.8933312,0 -1.3466634,0.386665 -0.4533322,0.373333 -0.4533322,0.999998 0,0.479999 0.1999995,0.799998 0.1999995,0.319999 0.6533317,0.573332 0.4533322,0.253332 1.2266634,0.546665 0.839998,0.306666 1.41333,0.666665 0.586665,0.346666 0.879998,0.839998 0.306666,0.493332 0.306666,1.239997 z"
         style="fill:#808080"
         id="path170" />
      <path
         d="m 21.101465,22.329557 v 7.146649 h -0.959998 l -0.173333,-0.946664 h -0.05333 q -0.346666,0.559998 -0.959998,0.826664 -0.613331,0.253333 -1.306663,0.253333 -1.29333,0 -1.946662,-0.613332 -0.653332,-0.626665 -0.653332,-1.986662 v -4.679988 h 1.186664 v 4.599989 q 0,1.706662 1.586663,1.706662 1.186663,0 1.639996,-0.666665 0.466665,-0.666665 0.466665,-1.919995 v -3.719991 z"
         style="fill:#808080"
         id="path172" />
      <path
         d="m 31.228107,22.196224 q 1.21333,0 1.813328,0.626665 0.599999,0.613332 0.599999,1.999995 v 4.653322 h -1.159997 v -4.599989 q 0,-1.693329 -1.45333,-1.693329 -1.039997,0 -1.493329,0.599999 -0.439999,0.599998 -0.439999,1.746662 v 3.946657 h -1.159997 v -4.599989 q 0,-1.693329 -1.466663,-1.693329 -1.079998,0 -1.49333,0.666665 -0.413332,0.666665 -0.413332,1.919996 v 3.706657 h -1.173331 v -7.146649 h 0.946665 l 0.173333,0.973331 h 0.06667 q 0.333333,-0.559998 0.893331,-0.826664 0.573332,-0.28 1.213331,-0.28 1.679995,0 2.186661,1.199997 h 0.06667 q 0.359999,-0.613332 0.973331,-0.906664 0.626665,-0.293333 1.319997,-0.293333 z"
         style="fill:#808080"
         id="path174" />
      <path
         d="m 40.528076,27.502877 q 0,1.039998 -0.773332,1.57333 -0.773331,0.533332 -2.079994,0.533332 -0.746665,0 -1.293331,-0.12 -0.533332,-0.12 -0.946664,-0.333332 v -1.066664 q 0.426666,0.213332 1.026664,0.399999 0.613332,0.173333 1.239997,0.173333 0.893331,0 1.29333,-0.28 0.399999,-0.293332 0.399999,-0.773331 0,-0.266666 -0.146666,-0.479999 -0.146666,-0.213333 -0.533332,-0.426665 -0.373332,-0.213333 -1.079997,-0.479999 -0.693332,-0.266666 -1.186664,-0.533332 -0.493332,-0.266666 -0.759998,-0.639999 -0.266666,-0.373332 -0.266666,-0.959997 0,-0.906665 0.733331,-1.399997 0.746665,-0.493332 1.946662,-0.493332 0.653332,0 1.21333,0.133333 0.573332,0.12 1.066664,0.346666 l -0.399999,0.933331 q -0.453332,-0.186666 -0.946664,-0.319999 -0.493332,-0.133333 -1.013331,-0.133333 -0.719998,0 -1.106664,0.239999 -0.373332,0.226666 -0.373332,0.626665 0,0.293333 0.173333,0.506666 0.173333,0.199999 0.573332,0.399999 0.413332,0.186666 1.09333,0.453332 0.679999,0.253333 1.159997,0.519999 0.479999,0.266666 0.733332,0.653331 0.253333,0.373333 0.253333,0.946664 z"
         style="fill:#808080"
         id="path176" />
    </g>
    <g
       aria-label="check"
       id="text1361"
       style="font-size:5.33333px;line-height:1.25">
      <path
         d="m 18.213002,17.927786 q -0.378667,0 -0.677333,-0.154667 -0.293333,-0.154666 -0.464,-0.479999 -0.165333,-0.325334 -0.165333,-0.832 0,-0.528 0.176,-0.858666 0.176,-0.330667 0.474666,-0.485333 0.304,-0.154667 0.688,-0.154667 0.218666,0 0.421333,0.048 0.202666,0.04267 0.330666,0.106667 l -0.144,0.389333 q -0.127999,-0.048 -0.298666,-0.09067 -0.170667,-0.04267 -0.32,-0.04267 -0.842666,0 -0.842666,1.082666 0,0.517333 0.202667,0.794666 0.207999,0.272 0.613332,0.272 0.234667,0 0.410667,-0.048 0.181333,-0.048 0.330666,-0.117333 v 0.415999 q -0.144,0.07467 -0.319999,0.112 -0.170667,0.04267 -0.416,0.04267 z"
         style="fill:#4d4d4d"
         id="path179" />
      <path
         d="m 20.095665,15.010454 q 0,0.213334 -0.02667,0.4 h 0.032 q 0.138667,-0.218666 0.373333,-0.330666 0.24,-0.112 0.517333,-0.112 0.522667,0 0.784,0.250666 0.261333,0.245333 0.261333,0.794666 v 1.861333 h -0.464 V 16.04512 q 0,-0.687999 -0.639999,-0.687999 -0.48,0 -0.661333,0.272 -0.176,0.266666 -0.176,0.767999 v 1.477333 h -0.469333 v -4.053331 h 0.469333 z"
         style="fill:#4d4d4d"
         id="path181" />
      <path
         d="m 24.026329,14.962454 q 0.368,0 0.629333,0.16 0.266667,0.16 0.405333,0.453333 0.144,0.288 0.144,0.677333 v 0.282667 h -1.957332 q 0.01067,0.485333 0.245333,0.741333 0.24,0.250666 0.666667,0.250666 0.271999,0 0.479999,-0.048 0.213334,-0.05333 0.437333,-0.149333 v 0.410666 q -0.218666,0.096 -0.431999,0.138667 -0.213334,0.048 -0.506667,0.048 -0.405333,0 -0.719999,-0.165333 -0.309333,-0.165334 -0.485333,-0.490667 -0.170667,-0.330666 -0.170667,-0.805333 0,-0.469333 0.154667,-0.805332 0.16,-0.336 0.442666,-0.517333 0.288,-0.181334 0.666666,-0.181334 z m -0.0053,0.384 q -0.336,0 -0.533333,0.218667 -0.192,0.213333 -0.229333,0.597333 h 1.455999 q -0.0053,-0.362667 -0.170667,-0.586667 -0.165333,-0.229333 -0.522666,-0.229333 z"
         style="fill:#4d4d4d"
         id="path183" />
      <path
         d="m 27.07699,17.927786 q -0.378667,0 -0.677333,-0.154667 -0.293333,-0.154666 -0.464,-0.479999 -0.165333,-0.325334 -0.165333,-0.832 0,-0.528 0.176,-0.858666 0.176,-0.330667 0.474666,-0.485333 0.304,-0.154667 0.688,-0.154667 0.218666,0 0.421333,0.048 0.202666,0.04267 0.330666,0.106667 l -0.144,0.389333 q -0.128,-0.048 -0.298666,-0.09067 -0.170667,-0.04267 -0.32,-0.04267 -0.842666,0 -0.842666,1.082666 0,0.517333 0.202666,0.794666 0.208,0.272 0.613333,0.272 0.234667,0 0.410667,-0.048 0.181333,-0.048 0.330666,-0.117333 v 0.415999 q -0.144,0.07467 -0.32,0.112 -0.170666,0.04267 -0.415999,0.04267 z"
         style="fill:#4d4d4d"
         id="path185" />
      <path
         d="m 28.95432,15.938454 q 0,0.08533 -0.01067,0.224 -0.0053,0.138666 -0.01067,0.239999 h 0.02133 q 0.032,-0.04267 0.096,-0.122666 0.064,-0.08 0.128,-0.16 0.06933,-0.08533 0.117333,-0.138667 l 0.912,-0.965332 h 0.549333 l -1.157333,1.221332 1.237333,1.637333 h -0.565333 l -0.992,-1.333333 -0.325333,0.282667 v 1.050666 h -0.464 v -4.053331 h 0.464 z"
         style="fill:#4d4d4d"
         id="path187" />
    </g>
  </g>
</svg>
